<?xml version="1.0" encoding="utf-8"?>
<!-- Generator: Adobe Illustrator 24.0.2, SVG Export Plug-In . SVG Version: 6.00 Build 0)  -->
<svg version="1.1" id="Capa_1" xmlns="http://www.w3.org/2000/svg" xmlns:xlink="http://www.w3.org/1999/xlink" x="0px" y="0px"
	 viewBox="0 0 167.7 167.2" style="enable-background:new 0 0 167.7 167.2;" xml:space="preserve">
<style type="text/css">
	.st0{fill:url(#XMLID_2_);}
	.st1{fill:#FFFFFF;}
</style>
<g id="Elements">
	<g id="XMLID_376_">
		
			<radialGradient id="XMLID_2_" cx="-78.2089" cy="58.7738" r="284.7152" gradientTransform="matrix(1.2276 0 0 -1.2246 78.1034 297.4717)" gradientUnits="userSpaceOnUse">
			<stop  offset="0" style="stop-color:#F9ED41"/>
			<stop  offset="0.2412" style="stop-color:#FF833D"/>
			<stop  offset="0.401" style="stop-color:#EE5568"/>
			<stop  offset="0.4888" style="stop-color:#E7407B"/>
			<stop  offset="1" style="stop-color:#0028FF"/>
		</radialGradient>
		<path id="XMLID_348_" class="st0" d="M128.4,166.9H40c-21.9,0-39.6-17.8-39.6-39.7V39.3C0.4,17.4,18.1-0.4,40-0.4h88.4
			c21.9,0,39.7,17.8,39.7,39.7v87.9C168,149.1,150.3,166.9,128.4,166.9z"/>
		<g id="XMLID_340_">
			<path id="XMLID_345_" class="st1" d="M102.2,127.5H65.5c-16,0-29-13-29-28.9V62.1c0-15.9,13-28.9,29-28.9h36.7
				c16,0,29,13,29,28.9v36.6C131.2,114.6,118.2,127.5,102.2,127.5z M65.5,40.3c-12.1,0-21.9,9.8-21.9,21.8v36.6
				c0,12,9.8,21.8,21.9,21.8h36.7c12.1,0,21.9-9.8,21.9-21.8V62.1c0-12-9.8-21.8-21.9-21.8H65.5z"/>
			<path id="XMLID_342_" class="st1" d="M83.9,104.2C70.7,104.2,60,93.5,60,80.3s10.7-23.9,23.9-23.9s23.9,10.7,23.9,23.9
				C107.8,93.5,97.1,104.2,83.9,104.2z M83.9,63.7c-9.2,0-16.7,7.5-16.7,16.6c0,9.2,7.5,16.6,16.7,16.6s16.7-7.5,16.7-16.6
				C100.5,71.2,93.1,63.7,83.9,63.7z"/>
			<path id="XMLID_341_" class="st1" d="M116.6,53.9c0,3.4-2.8,6.2-6.2,6.2c-3.4,0-6.2-2.8-6.2-6.2s2.8-6.2,6.2-6.2
				S116.6,50.5,116.6,53.9z"/>
		</g>
	</g>
</g>
</svg>
