<?xml version="1.0" encoding="utf-8"?>
<!-- Generator: Adobe Illustrator 24.0.2, SVG Export Plug-In . SVG Version: 6.00 Build 0)  -->
<svg version="1.1" id="Capa_1" xmlns="http://www.w3.org/2000/svg" xmlns:xlink="http://www.w3.org/1999/xlink" x="0px" y="0px"
	 viewBox="0 0 167.7 167.7" style="enable-background:new 0 0 167.7 167.7;" xml:space="preserve">
<style type="text/css">
	.st0{fill:#3737D1;}
</style>
<g>
	<path class="st0" d="M83.8,0.1C37.5,0.1,0,37.7,0,84c0,41.6,30.2,76,69.8,82.7v-65.2H49.6V78.1h20.2V60.8c0-20.1,12.2-31,30.1-31
		c8.6,0,15.9,0.6,18.1,0.9v21l-12.4,0c-9.7,0-11.6,4.6-11.6,11.4v15h23.2l-3,23.5H94v65.8c41.5-5.1,73.6-40.4,73.6-83.3
		C167.7,37.7,130.1,0.1,83.8,0.1z"/>
</g>
</svg>
